<svg width="28" height="28" viewBox="0 0 28 28" fill="none" xmlns="http://www.w3.org/2000/svg">
<path fill-rule="evenodd" clip-rule="evenodd" d="M24.7051 3.14454C24.4007 2.88319 24.0108 2.74273 23.6096 2.74983L23.5875 2.75002H21.5V14H23.5875L23.6096 14.0002C24.0108 14.0073 24.4007 13.8669 24.7051 13.6055C24.9913 13.3599 25.1833 13.0236 25.25 12.6539V4.09611C25.1833 3.72646 24.9913 3.39015 24.7051 3.14454ZM19 14.9848L14.4903 25.1318C14.1135 25.0116 13.7671 24.8026 13.4823 24.5178C13.0134 24.049 12.75 23.4131 12.75 22.75V17.75C12.75 17.0597 12.1904 16.5 11.5 16.5H4.42504L4.41088 16.5001C4.22969 16.5022 4.05022 16.4648 3.8849 16.3906C3.71958 16.3164 3.57237 16.2071 3.45347 16.0704C3.33457 15.9337 3.24682 15.7727 3.1963 15.5987C3.14584 15.4249 3.13372 15.2422 3.16077 15.0633C3.16074 15.0636 3.16081 15.0631 3.16077 15.0633L4.88591 3.81244C4.93111 3.51438 5.08251 3.24269 5.31222 3.04744C5.54192 2.85219 5.83445 2.74654 6.13591 2.74994L19 2.75002V14.9848ZM23.5775 0.250025C24.5869 0.235108 25.5672 0.589808 26.3335 1.24755C27.1028 1.90791 27.6029 2.82776 27.7388 3.83247C27.7463 3.88801 27.75 3.94398 27.75 4.00002V12.75C27.75 12.8061 27.7463 12.862 27.7388 12.9176C27.6029 13.9223 27.1028 14.8421 26.3335 15.5025C25.5672 16.1602 24.5869 16.5149 23.5775 16.5H21.0624L16.3923 27.0077C16.1917 27.4591 15.744 27.75 15.25 27.75C13.924 27.75 12.6522 27.2232 11.7145 26.2856C10.7768 25.3479 10.25 24.0761 10.25 22.75V19H4.43143C3.89049 19.005 3.35484 18.8929 2.86125 18.6714C2.36529 18.4488 1.92367 18.1211 1.56696 17.7109C1.21025 17.3006 0.946995 16.8178 0.795431 16.2957C0.643866 15.7737 0.607616 15.2249 0.689193 14.6874L2.41417 3.4376C2.41423 3.43723 2.41411 3.43798 2.41417 3.4376C2.54998 2.54385 3.00427 1.72809 3.6931 1.14259C4.38024 0.558524 5.25477 0.2417 6.15639 0.250025H23.5775Z" fill="#0074D9"/>
</svg>
