<svg width="28" height="28" viewBox="0 0 28 28" fill="none" xmlns="http://www.w3.org/2000/svg">
<path fill-rule="evenodd" clip-rule="evenodd" d="M11.6077 0.992327C11.8084 0.540917 12.256 0.25 12.75 0.25C14.0761 0.25 15.3479 0.776784 16.2855 1.71447C17.2232 2.65215 17.75 3.92392 17.75 5.25V9H23.5686C24.1095 8.99499 24.6452 9.10708 25.1388 9.32861C25.6347 9.5512 26.0764 9.87896 26.4331 10.2892C26.7898 10.6994 27.053 11.1822 27.2046 11.7043C27.3562 12.2264 27.3924 12.7751 27.3108 13.3126L25.5859 24.5624C25.5858 24.5627 25.5859 24.5621 25.5859 24.5624C25.4501 25.4562 24.9958 26.2719 24.3069 26.8574C23.6198 27.4415 22.7452 27.7584 21.8435 27.75H4C3.00544 27.75 2.05161 27.3549 1.34835 26.6517C0.645088 25.9484 0.25 24.9946 0.25 24V15.25C0.25 14.2554 0.645088 13.3016 1.34835 12.5984C2.05161 11.8951 3.00544 11.5 4 11.5H6.93766L11.6077 0.992327ZM9 13.0153L13.5098 2.86825C13.8865 2.98844 14.233 3.19743 14.5178 3.48223C14.9866 3.95107 15.25 4.58696 15.25 5.25V10.25C15.25 10.9404 15.8096 11.5 16.5 11.5H23.575L23.5892 11.4999C23.7703 11.4979 23.9498 11.5352 24.1151 11.6094C24.2805 11.6836 24.4277 11.7929 24.5466 11.9296C24.6655 12.0664 24.7532 12.2273 24.8037 12.4013C24.8542 12.5752 24.8663 12.7579 24.8392 12.9369C24.8393 12.9368 24.8392 12.9371 24.8392 12.9369L23.1141 24.1876C23.0689 24.4856 22.9175 24.7573 22.6878 24.9526C22.4581 25.1478 22.1656 25.2535 21.8641 25.2501L9 25.25V13.0153ZM6.5 25.25V14H4C3.66848 14 3.35054 14.1317 3.11612 14.3661C2.8817 14.6005 2.75 14.9185 2.75 15.25V24C2.75 24.3315 2.8817 24.6495 3.11612 24.8839C3.35054 25.1183 3.66848 25.25 4 25.25H6.5Z" fill="#0074D9"/>
</svg>
