<svg width="24" height="27" viewBox="0 0 24 27" fill="none" xmlns="http://www.w3.org/2000/svg">
<path fill-rule="evenodd" clip-rule="evenodd" d="M11.9994 0.112488C12.3311 0.112341 12.6493 0.244048 12.8839 0.478604L19.9586 7.55332C19.9587 7.55341 19.9585 7.55322 19.9586 7.55332C21.5325 9.12632 22.6049 11.131 23.0395 13.3134C23.4742 15.4959 23.2518 17.7583 22.4006 19.8144C21.5493 21.8705 20.1074 23.6279 18.2572 24.8644C16.4069 26.1009 14.2316 26.7609 12.0062 26.7609C9.78088 26.7609 7.60551 26.1009 5.7553 24.8644C3.90509 23.6279 2.46315 21.8705 1.61188 19.8144C0.760611 17.7583 0.538255 15.4959 0.972936 13.3134C1.40755 11.1313 2.47947 9.127 4.05314 7.55406C4.05339 7.55381 4.05289 7.55431 4.05314 7.55406L11.1153 0.479386C11.3497 0.244623 11.6677 0.112635 11.9994 0.112488ZM12.0008 3.13104L5.82107 9.32166C4.59679 10.5451 3.76286 12.1042 3.42478 13.8017C3.08669 15.4992 3.25964 17.2588 3.92174 18.858C4.58383 20.4572 5.70534 21.8241 7.14439 22.7858C8.58345 23.7475 10.2754 24.2609 12.0062 24.2609C13.7371 24.2609 15.429 23.7475 16.8681 22.7858C18.3071 21.8241 19.4286 20.4572 20.0907 18.858C20.7528 17.2588 20.9258 15.4992 20.5877 13.8017C20.2496 12.1042 19.4157 10.5451 18.1914 9.32166L12.0008 3.13104Z" fill="#0074D9"/>
</svg>
