<svg width="28" height="26" viewBox="0 0 28 26" fill="none" xmlns="http://www.w3.org/2000/svg">
<path fill-rule="evenodd" clip-rule="evenodd" d="M4 3C3.66848 3 3.35054 3.1317 3.11612 3.36612C2.8817 3.60054 2.75 3.91848 2.75 4.25V16.75C2.75 17.0815 2.8817 17.3995 3.11612 17.6339C3.35054 17.8683 3.66848 18 4 18H5.25C5.94036 18 6.5 18.5596 6.5 19.25C6.5 19.9404 5.94036 20.5 5.25 20.5H4C3.00544 20.5 2.05161 20.1049 1.34835 19.4016C0.645088 18.6984 0.25 17.7446 0.25 16.75V4.25C0.25 3.25544 0.645088 2.30161 1.34835 1.59835C2.05161 0.895088 3.00544 0.5 4 0.5H24C24.9946 0.5 25.9484 0.895088 26.6517 1.59835C27.3549 2.30161 27.75 3.25544 27.75 4.25V16.75C27.75 17.7446 27.3549 18.6984 26.6517 19.4016C25.9484 20.1049 24.9946 20.5 24 20.5H22.75C22.0596 20.5 21.5 19.9404 21.5 19.25C21.5 18.5596 22.0596 18 22.75 18H24C24.3315 18 24.6495 17.8683 24.8839 17.6339C25.1183 17.3995 25.25 17.0815 25.25 16.75V4.25C25.25 3.91848 25.1183 3.60054 24.8839 3.36612C24.6495 3.1317 24.3315 3 24 3H4Z" fill="#0074D9"/>
<path fill-rule="evenodd" clip-rule="evenodd" d="M14 15.5C14.371 15.5 14.7228 15.6648 14.9603 15.9498L21.2103 23.4498C21.5208 23.8224 21.5877 24.341 21.382 24.7802C21.1763 25.2194 20.735 25.5 20.25 25.5H7.75002C7.26499 25.5 6.82375 25.2194 6.61803 24.7802C6.4123 24.341 6.47924 23.8224 6.78974 23.4498L13.0397 15.9498C13.2772 15.6648 13.629 15.5 14 15.5ZM10.4188 23H17.5812L14 18.7026L10.4188 23Z" fill="#0074D9"/>
</svg>
