<svg width="30" height="22" viewBox="0 0 30 22" fill="none" xmlns="http://www.w3.org/2000/svg">
<path d="M6.25 11.875C5.875 11.875 5.5 11.75 5.25 11.375C4.75 10.875 4.875 10 5.375 9.625C11 5 19 5 24.625 9.625C25.125 10.125 25.25 10.875 24.75 11.375C24.25 11.875 23.5 12 23 11.5C18.375 7.625 11.625 7.625 7 11.5C6.875 11.875 6.5 11.875 6.25 11.875Z" fill="#0074D9"/>
<path d="M1.75 7.5C1.375 7.5 1 7.375 0.750001 7.125C0.250001 6.625 0.375001 5.875 0.875001 5.375C8.875 -1.625 21 -1.625 29 5.375C29.5 5.875 29.625 6.625 29.125 7.125C28.625 7.625 27.875 7.75 27.375 7.25C20.25 1 9.625 1 2.625 7.25C2.375 7.375 2.125 7.5 1.75 7.5Z" fill="#0074D9"/>
<path d="M19.375 16.375C19.125 16.375 18.875 16.25 18.625 16.125C16.5 14.625 13.5 14.625 11.375 16.125C10.75 16.5 10 16.375 9.625 15.875C9.25 15.25 9.375 14.5 9.875 14.125C12.875 12 17 12 20 14.125C20.625 14.5 20.75 15.25 20.25 15.875C20.125 16.25 19.75 16.375 19.375 16.375Z" fill="#0074D9"/>
<path d="M15 21.25C14.875 21.25 14.625 21.25 14.5 21.125C14.375 21.125 14.25 21 14.125 20.875C13.875 20.625 13.75 20.375 13.75 20C13.75 19.875 13.75 19.625 13.875 19.5C14 19.375 14 19.25 14.125 19.125C14.625 18.625 15.375 18.625 15.875 19.125C16.125 19.375 16.25 19.75 16.25 20C16.25 20.375 16.125 20.625 15.875 20.875C15.625 21.125 15.375 21.25 15 21.25Z" fill="#0074D9"/>
</svg>
