<svg width="28" height="30" viewBox="0 0 28 30" fill="none" xmlns="http://www.w3.org/2000/svg">
<path fill-rule="evenodd" clip-rule="evenodd" d="M13.4449 2.93136C13.4445 2.93155 13.4441 2.93174 13.4438 2.93192L3.44652 7.93054L3.44375 7.93192C3.23549 8.03541 3.06023 8.19494 2.93767 8.39257C2.81516 8.59014 2.75017 8.81796 2.75 9.05043C2.75 9.05035 2.75 9.05051 2.75 9.05043V20.9587C2.74838 21.1917 2.81186 21.4204 2.93334 21.6192C3.05462 21.8177 3.22885 21.9784 3.43644 22.0832C3.4361 22.083 3.43679 22.0834 3.43644 22.0832L13.434 27.082C13.6077 27.1689 13.7996 27.2143 13.9938 27.2143C14.1879 27.2143 14.3795 27.1691 14.5531 27.0822L24.5535 22.082L24.5562 22.0806C24.7645 21.9771 24.9398 21.8176 25.0623 21.6199C25.1849 21.4223 25.2499 21.1944 25.25 20.9618V9.05067C25.2499 8.81812 25.1849 8.59021 25.0623 8.39257C24.9398 8.19494 24.7645 8.03541 24.5562 7.93192L24.5535 7.93054L14.5563 2.93192C14.5559 2.93174 14.5555 2.93155 14.5551 2.93136C14.3826 2.84584 14.1926 2.80133 14 2.80133C13.8074 2.80133 13.6174 2.84584 13.4449 2.93136ZM15.1125 1.81251L15.6688 0.693095C15.1502 0.435424 14.579 0.301334 14 0.301334C13.421 0.301334 12.8498 0.435424 12.3313 0.693095L12.3285 0.694474L2.33125 5.69309C2.33074 5.69335 2.33022 5.6936 2.32971 5.69386C1.70561 6.00434 1.18039 6.48263 0.813024 7.07505C0.445352 7.66796 0.25037 8.35169 0.25 9.04934L0.25 20.9461C0.246037 21.6433 0.43653 22.3279 0.800132 22.9228C1.16457 23.5192 1.6884 24.0018 2.31253 24.3163L2.31598 24.318L12.3156 29.3179C12.8366 29.5786 13.4112 29.7143 13.9938 29.7143C14.5762 29.7143 15.1506 29.5786 15.6715 29.318C15.6716 29.318 15.6714 29.3181 15.6715 29.318L25.6688 24.3194C25.6692 24.3192 25.6696 24.319 25.67 24.3188C26.2942 24.0083 26.8195 23.53 27.187 22.9375C27.5546 22.3446 27.7496 21.6608 27.75 20.9632V9.05001C27.7496 8.35235 27.5546 7.66796 27.187 7.07505C26.8196 6.48265 26.2944 6.00437 25.6704 5.69389C25.6698 5.69362 25.6693 5.69336 25.6688 5.69309L15.6715 0.694474L15.1125 1.81251Z" fill="#0074D9"/>
<path fill-rule="evenodd" clip-rule="evenodd" d="M0.781965 7.14099C1.0907 6.52352 1.84154 6.27324 2.45902 6.58197L14 12.3525L25.541 6.58197C26.1585 6.27324 26.9093 6.52352 27.218 7.14099C27.5268 7.75846 27.2765 8.50931 26.659 8.81804L14.559 14.868C14.2071 15.044 13.7929 15.044 13.441 14.868L1.34098 8.81804C0.723509 8.50931 0.473229 7.75846 0.781965 7.14099Z" fill="#0074D9"/>
<path fill-rule="evenodd" clip-rule="evenodd" d="M14 12.5C14.6904 12.5 15.25 13.0597 15.25 13.75V28.45C15.25 29.1404 14.6904 29.7 14 29.7C13.3096 29.7 12.75 29.1404 12.75 28.45V13.75C12.75 13.0597 13.3096 12.5 14 12.5Z" fill="#0074D9"/>
<path fill-rule="evenodd" clip-rule="evenodd" d="M6.63197 3.81599C6.9407 3.19852 7.69154 2.94824 8.30902 3.25697L20.809 9.50697C21.4265 9.81571 21.6768 10.5666 21.368 11.184C21.0593 11.8015 20.3085 12.0518 19.691 11.743L7.19098 5.49304C6.57351 5.18431 6.32323 4.43346 6.63197 3.81599Z" fill="#0074D9"/>
</svg>
