<svg width="30" height="30" viewBox="0 0 30 30" fill="none" xmlns="http://www.w3.org/2000/svg">
<path fill-rule="evenodd" clip-rule="evenodd" d="M20 15C20.6904 15 21.25 15.5596 21.25 16.25V26.25C21.25 26.9404 20.6904 27.5 20 27.5C19.3096 27.5 18.75 26.9404 18.75 26.25V16.25C18.75 15.5596 19.3096 15 20 15Z" fill="#0074D9"/>
<path fill-rule="evenodd" clip-rule="evenodd" d="M10 15C10.6904 15 11.25 15.5596 11.25 16.25V26.25C11.25 26.9404 10.6904 27.5 10 27.5C9.30964 27.5 8.75 26.9404 8.75 26.25V16.25C8.75 15.5596 9.30964 15 10 15Z" fill="#0074D9"/>
<path fill-rule="evenodd" clip-rule="evenodd" d="M15 17.5C15.6904 17.5 16.25 18.0596 16.25 18.75V28.75C16.25 29.4404 15.6904 30 15 30C14.3096 30 13.75 29.4404 13.75 28.75V18.75C13.75 18.0596 14.3096 17.5 15 17.5Z" fill="#0074D9"/>
<path fill-rule="evenodd" clip-rule="evenodd" d="M10.103 0.0582278C11.8766 -0.122373 13.6677 0.12112 15.3287 0.768634C16.9897 1.41615 18.4731 2.44915 19.6565 3.78248C20.6225 4.87082 21.3661 6.13383 21.8491 7.49999H22.5015C24.2229 7.50202 25.8913 8.09618 27.2265 9.18275C28.5618 10.2693 29.4826 11.7821 29.8344 13.4673C30.1862 15.1524 29.9476 16.9073 29.1586 18.4373C28.3696 19.9673 27.0784 21.1794 25.5015 21.87C24.8691 22.1469 24.132 21.8588 23.855 21.2265C23.5781 20.5941 23.8662 19.8569 24.4985 19.58C25.5498 19.1196 26.4106 18.3116 26.9366 17.2915C27.4626 16.2715 27.6217 15.1016 27.3871 13.9782C27.1526 12.8548 26.5387 11.8462 25.6486 11.1218C24.7586 10.3976 23.6465 10.0015 22.499 9.99999C22.4989 9.99999 22.4992 9.99999 22.499 9.99999H20.925C20.355 9.99999 19.8572 9.61441 19.7147 9.06254C19.368 7.71998 18.7072 6.47904 17.7868 5.44201C16.8663 4.40497 15.7126 3.60153 14.4207 3.09791C13.1288 2.59428 11.7357 2.4049 10.3562 2.54537C8.97678 2.68583 7.65045 3.15213 6.48657 3.90582C5.32269 4.6595 4.3546 5.679 3.66208 6.88028C2.96956 8.08156 2.57245 9.43023 2.50348 10.8151C2.43451 12.2 2.69565 13.5814 3.26538 14.8456C3.83511 16.1097 4.69711 17.2204 5.78034 18.086C6.31966 18.5169 6.40749 19.3035 5.97653 19.8428C5.54557 20.3821 4.759 20.47 4.21968 20.039C2.82696 18.9261 1.71867 17.4981 0.986156 15.8728C0.253647 14.2475 -0.0821058 12.4713 0.00657314 10.6908C0.0952522 8.91019 0.605824 7.1762 1.4962 5.63169C2.38658 4.08719 3.63128 2.7764 5.12769 1.80738C6.6241 0.83835 8.32939 0.238828 10.103 0.0582278Z" fill="#0074D9"/>
</svg>
