<svg width="17" height="19" viewBox="0 0 17 19" fill="none" xmlns="http://www.w3.org/2000/svg">
<path fill-rule="evenodd" clip-rule="evenodd" d="M9.82761 0.479658C10.1567 0.622512 10.3522 0.965218 10.3077 1.3212L9.61312 6.87794H15.9709C16.2845 6.87794 16.5698 7.05934 16.7028 7.34331C16.8358 7.62727 16.7925 7.96255 16.5918 8.20344L8.51036 17.9011C8.28069 18.1767 7.89682 18.2679 7.56773 18.1251C7.23865 17.9822 7.04313 17.6395 7.08763 17.2835L7.78222 11.7268H1.42441C1.11084 11.7268 0.825575 11.5454 0.692571 11.2614C0.559568 10.9774 0.60284 10.6422 0.803584 10.4013L8.88498 0.703607C9.11465 0.428004 9.49852 0.336804 9.82761 0.479658ZM3.14983 10.1105H8.69767C8.92947 10.1105 9.15011 10.21 9.30351 10.3838C9.45692 10.5576 9.52832 10.7889 9.49957 11.0189L9.03332 14.7489L14.2455 8.49422H8.69767C8.46587 8.49422 8.24523 8.39469 8.09183 8.22091C7.93842 8.04714 7.86702 7.81585 7.89577 7.58584L8.36202 3.85587L3.14983 10.1105Z" fill="#BDBDBD"/>
</svg>
